<svg width="256" height="256" viewBox="0 0 256 256" fill="none" xmlns="http://www.w3.org/2000/svg">
<path d="M0 49.78C0 22.285 22.285 0 49.78 0H76.285C84.14 0 90.505 6.37 90.505 14.22C90.505 22.07 84.135 28.44 76.285 28.44H49.78C38 28.44 28.445 37.99 28.445 49.775V76.28C28.445 84.135 22.075 90.5 14.225 90.5C6.375 90.5 0 84.14 0 76.285V49.78ZM165.495 14.22C165.495 6.37 171.865 0 179.715 0H206.22C233.715 0 256 22.285 256 49.78V76.285C256 84.14 249.635 90.505 241.78 90.505C233.925 90.505 227.56 84.135 227.56 76.285V49.78C227.56 38 218.01 28.445 206.225 28.445H179.72C171.865 28.445 165.495 22.075 165.495 14.22ZM14.22 165.495C22.075 165.495 28.44 171.86 28.44 179.715V206.22C28.44 218 37.99 227.555 49.775 227.555H76.28C84.135 227.555 90.5 233.925 90.5 241.775C90.5 249.63 84.13 255.995 76.28 255.995H49.78C22.285 256 0 233.715 0 206.22V179.715C0 171.865 6.37 165.495 14.22 165.495ZM241.78 165.495C249.635 165.495 256 171.86 256 179.715V206.22C256 233.71 233.715 256 206.22 256H179.715C171.86 256 165.495 249.635 165.495 241.78C165.495 233.925 171.865 227.56 179.715 227.56H206.22C218 227.56 227.555 218.01 227.555 206.225V179.72C227.555 171.865 233.925 165.495 241.78 165.495ZM99.555 56.89H56.89V99.555H99.555V156.445H56.89V199.11H99.555V156.445H156.445V199.11H199.11V156.445H156.445V99.555H199.11V56.89H156.445V99.555H99.555V56.89Z" fill="currentColor"/>
</svg>
