<?xml version="1.0" encoding="UTF-8"?>
<svg height="512" viewBox="0 0 512 512" width="512" xmlns="http://www.w3.org/2000/svg"><defs></defs><rect fill="#ffffff" height="512" width="512" x="0" y="0"></rect><g fill="#000000"><rect height="20.48" transform="rotate(0,174.08,10.24)" width="20.48" x="163.84" y="0"></rect><rect height="20.48" transform="rotate(0,194.56,10.24)" width="20.48" x="184.32" y="0"></rect><rect height="20.48" transform="rotate(0,235.52,10.24)" width="20.48" x="225.28" y="0"></rect><rect height="20.48" transform="rotate(0,256,10.24)" width="20.48" x="245.76" y="0"></rect><rect height="20.48" transform="rotate(0,296.96,10.24)" width="20.48" x="286.71999999999997" y="0"></rect><rect height="20.48" transform="rotate(0,174.08,30.72)" width="20.48" x="163.84" y="20.479999999999997"></rect><rect height="20.48" transform="rotate(0,215.04,30.72)" width="20.48" x="204.79999999999998" y="20.479999999999997"></rect><rect height="20.48" transform="rotate(0,256,30.72)" width="20.48" x="245.76" y="20.479999999999997"></rect><rect height="20.48" transform="rotate(0,276.48,30.72)" width="20.48" x="266.24" y="20.479999999999997"></rect><rect height="20.48" transform="rotate(0,174.08,51.2)" width="20.48" x="163.84" y="40.96"></rect><rect height="20.48" transform="rotate(0,194.56,51.2)" width="20.48" x="184.32" y="40.96"></rect><rect height="20.48" transform="rotate(0,317.44,51.2)" width="20.48" x="307.2" y="40.96"></rect><rect height="20.48" transform="rotate(0,174.08,71.68)" width="20.48" x="163.84" y="61.440000000000005"></rect><rect height="20.48" transform="rotate(0,215.04,71.68)" width="20.48" x="204.79999999999998" y="61.440000000000005"></rect><rect height="20.48" transform="rotate(0,256,71.68)" width="20.48" x="245.76" y="61.440000000000005"></rect><rect height="20.48" transform="rotate(0,276.48,71.68)" width="20.48" x="266.24" y="61.440000000000005"></rect><rect height="20.48" transform="rotate(0,174.08,92.16)" width="20.48" x="163.84" y="81.92"></rect><rect height="20.48" transform="rotate(0,235.52,92.16)" width="20.48" x="225.28" y="81.92"></rect><rect height="20.48" transform="rotate(0,276.48,92.16)" width="20.48" x="266.24" y="81.92"></rect><rect height="20.48" transform="rotate(0,337.92,92.16)" width="20.48" x="327.68" y="81.92"></rect><rect height="20.48" transform="rotate(0,215.04,112.64)" width="20.48" x="204.79999999999998" y="102.4"></rect><rect height="20.48" transform="rotate(0,256,112.64)" width="20.48" x="245.76" y="102.4"></rect><rect height="20.48" transform="rotate(0,296.96,112.64)" width="20.48" x="286.71999999999997" y="102.4"></rect><rect height="20.48" transform="rotate(0,317.44,112.64)" width="20.48" x="307.2" y="102.4"></rect><rect height="20.48" transform="rotate(0,174.08,133.12)" width="20.48" x="163.84" y="122.88000000000001"></rect><rect height="20.48" transform="rotate(0,215.04,133.12)" width="20.48" x="204.79999999999998" y="122.88000000000001"></rect><rect height="20.48" transform="rotate(0,256,133.12)" width="20.48" x="245.76" y="122.88000000000001"></rect><rect height="20.48" transform="rotate(0,296.96,133.12)" width="20.48" x="286.71999999999997" y="122.88000000000001"></rect><rect height="20.48" transform="rotate(0,337.92,133.12)" width="20.48" x="327.68" y="122.88000000000001"></rect><rect height="20.48" transform="rotate(0,174.08,153.6)" width="20.48" x="163.84" y="143.35999999999999"></rect><rect height="20.48" transform="rotate(0,194.56,153.6)" width="20.48" x="184.32" y="143.35999999999999"></rect><rect height="20.48" transform="rotate(0,215.04,153.6)" width="20.48" x="204.79999999999998" y="143.35999999999999"></rect><rect height="20.48" transform="rotate(0,337.92,153.6)" width="20.48" x="327.68" y="143.35999999999999"></rect><rect height="20.48" transform="rotate(0,30.72,174.08)" width="20.48" x="20.479999999999997" y="163.84"></rect><rect height="20.48" transform="rotate(0,51.2,174.08)" width="20.48" x="40.96" y="163.84"></rect><rect height="20.48" transform="rotate(0,92.16,174.08)" width="20.48" x="81.92" y="163.84"></rect><rect height="20.48" transform="rotate(0,133.12,174.08)" width="20.48" x="122.88000000000001" y="163.84"></rect><rect height="20.48" transform="rotate(0,153.6,174.08)" width="20.48" x="143.35999999999999" y="163.84"></rect><rect height="20.48" transform="rotate(0,194.56,174.08)" width="20.48" x="184.32" y="163.84"></rect><rect height="20.48" transform="rotate(0,256,174.08)" width="20.48" x="245.76" y="163.84"></rect><rect height="20.48" transform="rotate(0,378.88,174.08)" width="20.48" x="368.64" y="163.84"></rect><rect height="20.48" transform="rotate(0,419.84000000000003,174.08)" width="20.48" x="409.6" y="163.84"></rect><rect height="20.48" transform="rotate(0,440.32,174.08)" width="20.48" x="430.08" y="163.84"></rect><rect height="20.48" transform="rotate(0,460.8,174.08)" width="20.48" x="450.56" y="163.84"></rect><rect height="20.48" transform="rotate(0,481.28000000000003,174.08)" width="20.48" x="471.04" y="163.84"></rect><rect height="20.48" transform="rotate(0,501.76,174.08)" width="20.48" x="491.52" y="163.84"></rect><rect height="20.48" transform="rotate(0,51.2,194.56)" width="20.48" x="40.96" y="184.32"></rect><rect height="20.48" transform="rotate(0,92.16,194.56)" width="20.48" x="81.92" y="184.32"></rect><rect height="20.48" transform="rotate(0,153.6,194.56)" width="20.48" x="143.35999999999999" y="184.32"></rect><rect height="20.48" transform="rotate(0,174.08,194.56)" width="20.48" x="163.84" y="184.32"></rect><rect height="20.48" transform="rotate(0,194.56,194.56)" width="20.48" x="184.32" y="184.32"></rect><rect height="20.48" transform="rotate(0,235.52,194.56)" width="20.48" x="225.28" y="184.32"></rect><rect height="20.48" transform="rotate(0,256,194.56)" width="20.48" x="245.76" y="184.32"></rect><rect height="20.48" transform="rotate(0,276.48,194.56)" width="20.48" x="266.24" y="184.32"></rect><rect height="20.48" transform="rotate(0,337.92,194.56)" width="20.48" x="327.68" y="184.32"></rect><rect height="20.48" transform="rotate(0,378.88,194.56)" width="20.48" x="368.64" y="184.32"></rect><rect height="20.48" transform="rotate(0,501.76,194.56)" width="20.48" x="491.52" y="184.32"></rect><rect height="20.48" transform="rotate(0,10.24,215.04)" width="20.48" x="0" y="204.79999999999998"></rect><rect height="20.48" transform="rotate(0,30.72,215.04)" width="20.48" x="20.479999999999997" y="204.79999999999998"></rect><rect height="20.48" transform="rotate(0,112.64,215.04)" width="20.48" x="102.4" y="204.79999999999998"></rect><rect height="20.48" transform="rotate(0,133.12,215.04)" width="20.48" x="122.88000000000001" y="204.79999999999998"></rect><rect height="20.48" transform="rotate(0,174.08,215.04)" width="20.48" x="163.84" y="204.79999999999998"></rect><rect height="20.48" transform="rotate(0,194.56,215.04)" width="20.48" x="184.32" y="204.79999999999998"></rect><rect height="20.48" transform="rotate(0,256,215.04)" width="20.48" x="245.76" y="204.79999999999998"></rect><rect height="20.48" transform="rotate(0,296.96,215.04)" width="20.48" x="286.71999999999997" y="204.79999999999998"></rect><rect height="20.48" transform="rotate(0,378.88,215.04)" width="20.48" x="368.64" y="204.79999999999998"></rect><rect height="20.48" transform="rotate(0,399.36,215.04)" width="20.48" x="389.12" y="204.79999999999998"></rect><rect height="20.48" transform="rotate(0,419.84000000000003,215.04)" width="20.48" x="409.6" y="204.79999999999998"></rect><rect height="20.48" transform="rotate(0,460.8,215.04)" width="20.48" x="450.56" y="204.79999999999998"></rect><rect height="20.48" transform="rotate(0,481.28000000000003,215.04)" width="20.48" x="471.04" y="204.79999999999998"></rect><rect height="20.48" transform="rotate(0,501.76,215.04)" width="20.48" x="491.52" y="204.79999999999998"></rect><rect height="20.48" transform="rotate(0,10.24,235.52)" width="20.48" x="0" y="225.28"></rect><rect height="20.48" transform="rotate(0,30.72,235.52)" width="20.48" x="20.479999999999997" y="225.28"></rect><rect height="20.48" transform="rotate(0,92.16,235.52)" width="20.48" x="81.92" y="225.28"></rect><rect height="20.48" transform="rotate(0,112.64,235.52)" width="20.48" x="102.4" y="225.28"></rect><rect height="20.48" transform="rotate(0,153.6,235.52)" width="20.48" x="143.35999999999999" y="225.28"></rect><rect height="20.48" transform="rotate(0,194.56,235.52)" width="20.48" x="184.32" y="225.28"></rect><rect height="20.48" transform="rotate(0,256,235.52)" width="20.48" x="245.76" y="225.28"></rect><rect height="20.48" transform="rotate(0,276.48,235.52)" width="20.48" x="266.24" y="225.28"></rect><rect height="20.48" transform="rotate(0,296.96,235.52)" width="20.48" x="286.71999999999997" y="225.28"></rect><rect height="20.48" transform="rotate(0,317.44,235.52)" width="20.48" x="307.2" y="225.28"></rect><rect height="20.48" transform="rotate(0,337.92,235.52)" width="20.48" x="327.68" y="225.28"></rect><rect height="20.48" transform="rotate(0,358.40000000000003,235.52)" width="20.48" x="348.16" y="225.28"></rect><rect height="20.48" transform="rotate(0,378.88,235.52)" width="20.48" x="368.64" y="225.28"></rect><rect height="20.48" transform="rotate(0,399.36,235.52)" width="20.48" x="389.12" y="225.28"></rect><rect height="20.48" transform="rotate(0,481.28000000000003,235.52)" width="20.48" x="471.04" y="225.28"></rect><rect height="20.48" transform="rotate(0,30.72,256)" width="20.48" x="20.479999999999997" y="245.76"></rect><rect height="20.48" transform="rotate(0,51.2,256)" width="20.48" x="40.96" y="245.76"></rect><rect height="20.48" transform="rotate(0,71.68,256)" width="20.48" x="61.440000000000005" y="245.76"></rect><rect height="20.48" transform="rotate(0,133.12,256)" width="20.48" x="122.88000000000001" y="245.76"></rect><rect height="20.48" transform="rotate(0,153.6,256)" width="20.48" x="143.35999999999999" y="245.76"></rect><rect height="20.48" transform="rotate(0,174.08,256)" width="20.48" x="163.84" y="245.76"></rect><rect height="20.48" transform="rotate(0,215.04,256)" width="20.48" x="204.79999999999998" y="245.76"></rect><rect height="20.48" transform="rotate(0,235.52,256)" width="20.48" x="225.28" y="245.76"></rect><rect height="20.48" transform="rotate(0,296.96,256)" width="20.48" x="286.71999999999997" y="245.76"></rect><rect height="20.48" transform="rotate(0,337.92,256)" width="20.48" x="327.68" y="245.76"></rect><rect height="20.48" transform="rotate(0,358.40000000000003,256)" width="20.48" x="348.16" y="245.76"></rect><rect height="20.48" transform="rotate(0,378.88,256)" width="20.48" x="368.64" y="245.76"></rect><rect height="20.48" transform="rotate(0,399.36,256)" width="20.48" x="389.12" y="245.76"></rect><rect height="20.48" transform="rotate(0,440.32,256)" width="20.48" x="430.08" y="245.76"></rect><rect height="20.48" transform="rotate(0,481.28000000000003,256)" width="20.48" x="471.04" y="245.76"></rect><rect height="20.48" transform="rotate(0,501.76,256)" width="20.48" x="491.52" y="245.76"></rect><rect height="20.48" transform="rotate(0,30.72,276.48)" width="20.48" x="20.479999999999997" y="266.24"></rect><rect height="20.48" transform="rotate(0,51.2,276.48)" width="20.48" x="40.96" y="266.24"></rect><rect height="20.48" transform="rotate(0,112.64,276.48)" width="20.48" x="102.4" y="266.24"></rect><rect height="20.48" transform="rotate(0,194.56,276.48)" width="20.48" x="184.32" y="266.24"></rect><rect height="20.48" transform="rotate(0,296.96,276.48)" width="20.48" x="286.71999999999997" y="266.24"></rect><rect height="20.48" transform="rotate(0,337.92,276.48)" width="20.48" x="327.68" y="266.24"></rect><rect height="20.48" transform="rotate(0,358.40000000000003,276.48)" width="20.48" x="348.16" y="266.24"></rect><rect height="20.48" transform="rotate(0,378.88,276.48)" width="20.48" x="368.64" y="266.24"></rect><rect height="20.48" transform="rotate(0,440.32,276.48)" width="20.48" x="430.08" y="266.24"></rect><rect height="20.48" transform="rotate(0,501.76,276.48)" width="20.48" x="491.52" y="266.24"></rect><rect height="20.48" transform="rotate(0,10.24,296.96)" width="20.48" x="0" y="286.71999999999997"></rect><rect height="20.48" transform="rotate(0,51.2,296.96)" width="20.48" x="40.96" y="286.71999999999997"></rect><rect height="20.48" transform="rotate(0,71.68,296.96)" width="20.48" x="61.440000000000005" y="286.71999999999997"></rect><rect height="20.48" transform="rotate(0,92.16,296.96)" width="20.48" x="81.92" y="286.71999999999997"></rect><rect height="20.48" transform="rotate(0,133.12,296.96)" width="20.48" x="122.88000000000001" y="286.71999999999997"></rect><rect height="20.48" transform="rotate(0,153.6,296.96)" width="20.48" x="143.35999999999999" y="286.71999999999997"></rect><rect height="20.48" transform="rotate(0,194.56,296.96)" width="20.48" x="184.32" y="286.71999999999997"></rect><rect height="20.48" transform="rotate(0,276.48,296.96)" width="20.48" x="266.24" y="286.71999999999997"></rect><rect height="20.48" transform="rotate(0,337.92,296.96)" width="20.48" x="327.68" y="286.71999999999997"></rect><rect height="20.48" transform="rotate(0,358.40000000000003,296.96)" width="20.48" x="348.16" y="286.71999999999997"></rect><rect height="20.48" transform="rotate(0,378.88,296.96)" width="20.48" x="368.64" y="286.71999999999997"></rect><rect height="20.48" transform="rotate(0,399.36,296.96)" width="20.48" x="389.12" y="286.71999999999997"></rect><rect height="20.48" transform="rotate(0,460.8,296.96)" width="20.48" x="450.56" y="286.71999999999997"></rect><rect height="20.48" transform="rotate(0,481.28000000000003,296.96)" width="20.48" x="471.04" y="286.71999999999997"></rect><rect height="20.48" transform="rotate(0,501.76,296.96)" width="20.48" x="491.52" y="286.71999999999997"></rect><rect height="20.48" transform="rotate(0,30.72,317.44)" width="20.48" x="20.479999999999997" y="307.2"></rect><rect height="20.48" transform="rotate(0,92.16,317.44)" width="20.48" x="81.92" y="307.2"></rect><rect height="20.48" transform="rotate(0,153.6,317.44)" width="20.48" x="143.35999999999999" y="307.2"></rect><rect height="20.48" transform="rotate(0,174.08,317.44)" width="20.48" x="163.84" y="307.2"></rect><rect height="20.48" transform="rotate(0,194.56,317.44)" width="20.48" x="184.32" y="307.2"></rect><rect height="20.48" transform="rotate(0,256,317.44)" width="20.48" x="245.76" y="307.2"></rect><rect height="20.48" transform="rotate(0,276.48,317.44)" width="20.48" x="266.24" y="307.2"></rect><rect height="20.48" transform="rotate(0,317.44,317.44)" width="20.48" x="307.2" y="307.2"></rect><rect height="20.48" transform="rotate(0,337.92,317.44)" width="20.48" x="327.68" y="307.2"></rect><rect height="20.48" transform="rotate(0,358.40000000000003,317.44)" width="20.48" x="348.16" y="307.2"></rect><rect height="20.48" transform="rotate(0,419.84000000000003,317.44)" width="20.48" x="409.6" y="307.2"></rect><rect height="20.48" transform="rotate(0,481.28000000000003,317.44)" width="20.48" x="471.04" y="307.2"></rect><rect height="20.48" transform="rotate(0,10.24,337.92)" width="20.48" x="0" y="327.68"></rect><rect height="20.48" transform="rotate(0,133.12,337.92)" width="20.48" x="122.88000000000001" y="327.68"></rect><rect height="20.48" transform="rotate(0,174.08,337.92)" width="20.48" x="163.84" y="327.68"></rect><rect height="20.48" transform="rotate(0,215.04,337.92)" width="20.48" x="204.79999999999998" y="327.68"></rect><rect height="20.48" transform="rotate(0,235.52,337.92)" width="20.48" x="225.28" y="327.68"></rect><rect height="20.48" transform="rotate(0,276.48,337.92)" width="20.48" x="266.24" y="327.68"></rect><rect height="20.48" transform="rotate(0,296.96,337.92)" width="20.48" x="286.71999999999997" y="327.68"></rect><rect height="20.48" transform="rotate(0,337.92,337.92)" width="20.48" x="327.68" y="327.68"></rect><rect height="20.48" transform="rotate(0,358.40000000000003,337.92)" width="20.48" x="348.16" y="327.68"></rect><rect height="20.48" transform="rotate(0,378.88,337.92)" width="20.48" x="368.64" y="327.68"></rect><rect height="20.48" transform="rotate(0,399.36,337.92)" width="20.48" x="389.12" y="327.68"></rect><rect height="20.48" transform="rotate(0,419.84000000000003,337.92)" width="20.48" x="409.6" y="327.68"></rect><rect height="20.48" transform="rotate(0,440.32,337.92)" width="20.48" x="430.08" y="327.68"></rect><rect height="20.48" transform="rotate(0,174.08,358.40000000000003)" width="20.48" x="163.84" y="348.16"></rect><rect height="20.48" transform="rotate(0,276.48,358.40000000000003)" width="20.48" x="266.24" y="348.16"></rect><rect height="20.48" transform="rotate(0,317.44,358.40000000000003)" width="20.48" x="307.2" y="348.16"></rect><rect height="20.48" transform="rotate(0,337.92,358.40000000000003)" width="20.48" x="327.68" y="348.16"></rect><rect height="20.48" transform="rotate(0,419.84000000000003,358.40000000000003)" width="20.48" x="409.6" y="348.16"></rect><rect height="20.48" transform="rotate(0,440.32,358.40000000000003)" width="20.48" x="430.08" y="348.16"></rect><rect height="20.48" transform="rotate(0,481.28000000000003,358.40000000000003)" width="20.48" x="471.04" y="348.16"></rect><rect height="20.48" transform="rotate(0,501.76,358.40000000000003)" width="20.48" x="491.52" y="348.16"></rect><rect height="20.48" transform="rotate(0,174.08,378.88)" width="20.48" x="163.84" y="368.64"></rect><rect height="20.48" transform="rotate(0,194.56,378.88)" width="20.48" x="184.32" y="368.64"></rect><rect height="20.48" transform="rotate(0,215.04,378.88)" width="20.48" x="204.79999999999998" y="368.64"></rect><rect height="20.48" transform="rotate(0,256,378.88)" width="20.48" x="245.76" y="368.64"></rect><rect height="20.48" transform="rotate(0,276.48,378.88)" width="20.48" x="266.24" y="368.64"></rect><rect height="20.48" transform="rotate(0,317.44,378.88)" width="20.48" x="307.2" y="368.64"></rect><rect height="20.48" transform="rotate(0,337.92,378.88)" width="20.48" x="327.68" y="368.64"></rect><rect height="20.48" transform="rotate(0,378.88,378.88)" width="20.48" x="368.64" y="368.64"></rect><rect height="20.48" transform="rotate(0,419.84000000000003,378.88)" width="20.48" x="409.6" y="368.64"></rect><rect height="20.48" transform="rotate(0,440.32,378.88)" width="20.48" x="430.08" y="368.64"></rect><rect height="20.48" transform="rotate(0,481.28000000000003,378.88)" width="20.48" x="471.04" y="368.64"></rect><rect height="20.48" transform="rotate(0,501.76,378.88)" width="20.48" x="491.52" y="368.64"></rect><rect height="20.48" transform="rotate(0,215.04,399.36)" width="20.48" x="204.79999999999998" y="389.12"></rect><rect height="20.48" transform="rotate(0,256,399.36)" width="20.48" x="245.76" y="389.12"></rect><rect height="20.48" transform="rotate(0,337.92,399.36)" width="20.48" x="327.68" y="389.12"></rect><rect height="20.48" transform="rotate(0,419.84000000000003,399.36)" width="20.48" x="409.6" y="389.12"></rect><rect height="20.48" transform="rotate(0,440.32,399.36)" width="20.48" x="430.08" y="389.12"></rect><rect height="20.48" transform="rotate(0,481.28000000000003,399.36)" width="20.48" x="471.04" y="389.12"></rect><rect height="20.48" transform="rotate(0,174.08,419.84000000000003)" width="20.48" x="163.84" y="409.6"></rect><rect height="20.48" transform="rotate(0,215.04,419.84000000000003)" width="20.48" x="204.79999999999998" y="409.6"></rect><rect height="20.48" transform="rotate(0,256,419.84000000000003)" width="20.48" x="245.76" y="409.6"></rect><rect height="20.48" transform="rotate(0,276.48,419.84000000000003)" width="20.48" x="266.24" y="409.6"></rect><rect height="20.48" transform="rotate(0,296.96,419.84000000000003)" width="20.48" x="286.71999999999997" y="409.6"></rect><rect height="20.48" transform="rotate(0,337.92,419.84000000000003)" width="20.48" x="327.68" y="409.6"></rect><rect height="20.48" transform="rotate(0,358.40000000000003,419.84000000000003)" width="20.48" x="348.16" y="409.6"></rect><rect height="20.48" transform="rotate(0,378.88,419.84000000000003)" width="20.48" x="368.64" y="409.6"></rect><rect height="20.48" transform="rotate(0,399.36,419.84000000000003)" width="20.48" x="389.12" y="409.6"></rect><rect height="20.48" transform="rotate(0,419.84000000000003,419.84000000000003)" width="20.48" x="409.6" y="409.6"></rect><rect height="20.48" transform="rotate(0,440.32,419.84000000000003)" width="20.48" x="430.08" y="409.6"></rect><rect height="20.48" transform="rotate(0,501.76,419.84000000000003)" width="20.48" x="491.52" y="409.6"></rect><rect height="20.48" transform="rotate(0,194.56,440.32)" width="20.48" x="184.32" y="430.08"></rect><rect height="20.48" transform="rotate(0,235.52,440.32)" width="20.48" x="225.28" y="430.08"></rect><rect height="20.48" transform="rotate(0,256,440.32)" width="20.48" x="245.76" y="430.08"></rect><rect height="20.48" transform="rotate(0,276.48,440.32)" width="20.48" x="266.24" y="430.08"></rect><rect height="20.48" transform="rotate(0,317.44,440.32)" width="20.48" x="307.2" y="430.08"></rect><rect height="20.48" transform="rotate(0,337.92,440.32)" width="20.48" x="327.68" y="430.08"></rect><rect height="20.48" transform="rotate(0,399.36,440.32)" width="20.48" x="389.12" y="430.08"></rect><rect height="20.48" transform="rotate(0,419.84000000000003,440.32)" width="20.48" x="409.6" y="430.08"></rect><rect height="20.48" transform="rotate(0,440.32,440.32)" width="20.48" x="430.08" y="430.08"></rect><rect height="20.48" transform="rotate(0,460.8,440.32)" width="20.48" x="450.56" y="430.08"></rect><rect height="20.48" transform="rotate(0,174.08,460.8)" width="20.48" x="163.84" y="450.56"></rect><rect height="20.48" transform="rotate(0,235.52,460.8)" width="20.48" x="225.28" y="450.56"></rect><rect height="20.48" transform="rotate(0,317.44,460.8)" width="20.48" x="307.2" y="450.56"></rect><rect height="20.48" transform="rotate(0,358.40000000000003,460.8)" width="20.48" x="348.16" y="450.56"></rect><rect height="20.48" transform="rotate(0,419.84000000000003,460.8)" width="20.48" x="409.6" y="450.56"></rect><rect height="20.48" transform="rotate(0,501.76,460.8)" width="20.48" x="491.52" y="450.56"></rect><rect height="20.48" transform="rotate(0,174.08,481.28000000000003)" width="20.48" x="163.84" y="471.04"></rect><rect height="20.48" transform="rotate(0,215.04,481.28000000000003)" width="20.48" x="204.79999999999998" y="471.04"></rect><rect height="20.48" transform="rotate(0,256,481.28000000000003)" width="20.48" x="245.76" y="471.04"></rect><rect height="20.48" transform="rotate(0,276.48,481.28000000000003)" width="20.48" x="266.24" y="471.04"></rect><rect height="20.48" transform="rotate(0,317.44,481.28000000000003)" width="20.48" x="307.2" y="471.04"></rect><rect height="20.48" transform="rotate(0,337.92,481.28000000000003)" width="20.48" x="327.68" y="471.04"></rect><rect height="20.48" transform="rotate(0,358.40000000000003,481.28000000000003)" width="20.48" x="348.16" y="471.04"></rect><rect height="20.48" transform="rotate(0,378.88,481.28000000000003)" width="20.48" x="368.64" y="471.04"></rect><rect height="20.48" transform="rotate(0,419.84000000000003,481.28000000000003)" width="20.48" x="409.6" y="471.04"></rect><rect height="20.48" transform="rotate(0,440.32,481.28000000000003)" width="20.48" x="430.08" y="471.04"></rect><rect height="20.48" transform="rotate(0,481.28000000000003,481.28000000000003)" width="20.48" x="471.04" y="471.04"></rect><rect height="20.48" transform="rotate(0,194.56,501.76)" width="20.48" x="184.32" y="491.52"></rect><rect height="20.48" transform="rotate(0,215.04,501.76)" width="20.48" x="204.79999999999998" y="491.52"></rect><rect height="20.48" transform="rotate(0,235.52,501.76)" width="20.48" x="225.28" y="491.52"></rect><rect height="20.48" transform="rotate(0,256,501.76)" width="20.48" x="245.76" y="491.52"></rect><rect height="20.48" transform="rotate(0,276.48,501.76)" width="20.48" x="266.24" y="491.52"></rect><rect height="20.48" transform="rotate(0,337.92,501.76)" width="20.48" x="327.68" y="491.52"></rect><rect height="20.48" transform="rotate(0,378.88,501.76)" width="20.48" x="368.64" y="491.52"></rect><rect height="20.48" transform="rotate(0,399.36,501.76)" width="20.48" x="389.12" y="491.52"></rect><rect height="20.48" transform="rotate(0,481.28000000000003,501.76)" width="20.48" x="471.04" y="491.52"></rect><rect height="20.48" transform="rotate(0,501.76,501.76)" width="20.48" x="491.52" y="491.52"></rect></g><g fill="#000000"><path d="M 0 0v 143.36h 143.36v -143.36zM 20.48 20.48h 102.4v 102.4h -102.4z" fill-rule="evenodd" transform="rotate(0,71.68,71.68)"></path></g><g fill="#000000"><rect height="61.44" transform="rotate(0,71.68,71.68)" width="61.44" x="40.96000000000001" y="40.96000000000001"></rect></g><g fill="#000000"><path d="M 368.64 0v 143.36h 143.36v -143.36zM 389.12 20.48h 102.4v 102.4h -102.4z" fill-rule="evenodd" transform="rotate(0,440.32,71.68)"></path></g><g fill="#000000"><rect height="61.44" transform="rotate(0,440.32,71.68)" width="61.44" x="409.6" y="40.96000000000001"></rect></g><g fill="#000000"><path d="M 0 368.64v 143.36h 143.36v -143.36zM 20.48 389.12h 102.4v 102.4h -102.4z" fill-rule="evenodd" transform="rotate(0,71.68,440.32)"></path></g><g fill="#000000"><rect height="61.44" transform="rotate(0,71.68,440.32)" width="61.44" x="40.96000000000001" y="409.6"></rect></g></svg>